<svg width="582" height="43" viewBox="0 0 582 43" fill="none" xmlns="http://www.w3.org/2000/svg">
<path d="M84.0847 2.99694C158.094 -3.80852 232.426 14.2081 305.307 24.5525C325.812 27.4629 346.106 29.7122 366.418 33.7747C380.854 36.662 365.282 35.0333 359.751 34.8858C335.28 34.2333 311.053 31.3049 286.751 28.5525C245.406 23.8697 205.431 23.131 163.862 24.9969C111.568 27.3443 59.6547 40.9969 7.41799 40.9969C6.06379 40.9969 0.234604 41.0408 2.5291 37.8858C8.64317 29.479 30.0543 28.1673 38.6402 26.8858C140.633 11.6631 244.095 18.9969 346.751 18.9969C397.218 18.9969 447.872 17.7746 498.307 19.8858C520.246 20.8042 545.606 21.9484 566.751 28.9969C571.615 30.6182 574.902 30.9969 580.085 30.9969" stroke="white" stroke-width="3" stroke-linecap="round"/>
</svg>
