<svg width="382" height="32" viewBox="0 0 382 32" fill="none" xmlns="http://www.w3.org/2000/svg">
<path d="M140.741 19.3316C175.282 21.4467 210.078 20.3511 244.665 20.3511C282.652 20.3511 320.273 21.7652 358.046 26.2415C360.719 26.5583 363.393 26.8771 366.057 27.261C367.794 27.5113 371.888 26.8751 371.176 28.5071C370.043 31.1025 347.522 29.5249 346.697 29.5266C277.99 29.6676 209.281 29.5266 140.574 29.5266C94.597 29.5266 48.5192 30.4266 2.54741 29.5266C-0.168723 29.4734 7.96629 29.1173 10.6699 28.8469C27.9983 27.1143 45.2081 24.4574 62.5761 23.0697C142.196 16.7081 222.949 20.3511 302.746 20.3511C327.503 20.3511 401.774 20.3511 377.017 20.3511C307.42 20.3511 237.822 20.3511 168.224 20.3511C144.395 20.3511 120.565 20.3511 96.7351 20.3511C83.4758 20.3511 123.254 20.3511 136.513 20.3511C212.546 20.3511 440.644 20.3511 364.611 20.3511C326.337 20.3511 288.373 14.137 250.284 10.949C218.97 8.32802 187.697 6.93973 156.319 5.6249C145.935 5.18981 136.73 4.26418 126.722 2" stroke="white" stroke-width="3" stroke-linecap="round"/>
</svg>
