<svg width="140" height="49" viewBox="0 0 140 49" fill="none" xmlns="http://www.w3.org/2000/svg">
<path d="M58.2735 44.5709C69.5445 45.2507 80.899 44.8986 92.1854 44.8986C104.581 44.8986 116.857 45.3531 129.184 46.7919C130.056 46.8937 130.928 46.9962 131.798 47.1196C132.364 47.2 133.7 46.9956 133.468 47.5201C133.098 48.3544 125.749 47.8473 125.48 47.8478C103.06 47.8932 80.6392 47.8478 58.219 47.8478C43.2159 47.8478 28.1799 48.1371 13.1786 47.8478C12.2923 47.8307 14.9469 47.7163 15.8291 47.6294C21.4837 47.0724 27.0995 46.2185 32.7669 45.7724C58.7483 43.7276 85.099 44.8986 111.138 44.8986C119.217 44.8986 143.453 44.8986 135.374 44.8986C112.663 44.8986 89.9524 44.8986 67.2416 44.8986C59.4656 44.8986 51.6896 44.8986 43.9136 44.8986C39.5868 44.8986 52.567 44.8986 56.8938 44.8986C81.7044 44.8986 156.136 44.8986 131.326 44.8986C118.836 44.8986 106.448 42.9012 94.019 41.8765C83.8006 41.034 73.5959 40.5878 63.3566 40.1651C59.9684 40.0253 56.9644 39.7278 53.6986 39" stroke="white" stroke-linecap="round"/>
<path d="M79.988 35.07C79.8107 35.07 79.6613 35.0093 79.54 34.888C79.4187 34.7667 79.358 34.6173 79.358 34.44V25.872C79.358 25.6947 79.4187 25.5453 79.54 25.424C79.6613 25.2933 79.8107 25.228 79.988 25.228H83.25C84.1367 25.228 84.86 25.354 85.42 25.606C85.98 25.858 86.3907 26.1987 86.652 26.628C86.9227 27.048 87.058 27.5287 87.058 28.07C87.058 28.6113 86.904 29.1153 86.596 29.582C86.2973 30.0487 85.84 30.3893 85.224 30.604C85.616 30.7067 85.9287 30.8933 86.162 31.164C86.3953 31.4253 86.568 31.724 86.68 32.06C86.8013 32.396 86.8807 32.7227 86.918 33.04C86.9553 33.348 86.974 33.6 86.974 33.796V34.44C86.974 34.6173 86.9133 34.7667 86.792 34.888C86.6707 35.0093 86.5213 35.07 86.344 35.07C86.148 35.07 85.9893 35.014 85.868 34.902C85.756 34.7807 85.7 34.6267 85.7 34.44V34.02C85.7 33.7867 85.6813 33.5113 85.644 33.194C85.616 32.8767 85.5367 32.564 85.406 32.256C85.2753 31.948 85.0607 31.696 84.762 31.5C84.4727 31.2947 84.062 31.192 83.53 31.192H80.632V34.44C80.632 34.6173 80.5667 34.7667 80.436 34.888C80.3147 35.0093 80.1653 35.07 79.988 35.07ZM80.632 29.988H83.166C83.95 29.988 84.58 29.834 85.056 29.526C85.5413 29.218 85.784 28.7653 85.784 28.168C85.784 27.8227 85.7047 27.5193 85.546 27.258C85.3873 26.9967 85.112 26.796 84.72 26.656C84.328 26.5067 83.7867 26.432 83.096 26.432H80.632V29.988ZM89.9548 35C89.7775 35 89.6281 34.9393 89.5068 34.818C89.3855 34.6967 89.3248 34.5473 89.3248 34.37V25.872C89.3248 25.6947 89.3855 25.5453 89.5068 25.424C89.6281 25.2933 89.7775 25.228 89.9548 25.228H95.5688C95.7368 25.228 95.8768 25.2887 95.9888 25.41C96.1101 25.522 96.1708 25.662 96.1708 25.83C96.1708 25.998 96.1101 26.138 95.9888 26.25C95.8768 26.362 95.7368 26.418 95.5688 26.418H90.5988V29.512H95.0648C95.2328 29.512 95.3728 29.5727 95.4848 29.694C95.6061 29.806 95.6668 29.946 95.6668 30.114C95.6668 30.282 95.6061 30.422 95.4848 30.534C95.3728 30.646 95.2328 30.702 95.0648 30.702H90.5988V33.81H95.5688C95.7368 33.81 95.8768 33.8707 95.9888 33.992C96.1101 34.104 96.1708 34.244 96.1708 34.412C96.1708 34.58 96.1101 34.72 95.9888 34.832C95.8768 34.944 95.7368 35 95.5688 35H89.9548ZM102.469 35.14C101.545 35.14 100.709 34.9393 99.9628 34.538C99.2255 34.1273 98.6422 33.5487 98.2128 32.802C97.7835 32.046 97.5688 31.15 97.5688 30.114C97.5688 29.0687 97.7835 28.1727 98.2128 27.426C98.6422 26.6793 99.2255 26.1053 99.9628 25.704C100.709 25.2933 101.545 25.088 102.469 25.088C103.159 25.088 103.757 25.172 104.261 25.34C104.765 25.508 105.231 25.7133 105.661 25.956C105.754 26.0027 105.824 26.068 105.871 26.152C105.927 26.2267 105.959 26.3293 105.969 26.46C105.978 26.6093 105.931 26.74 105.829 26.852C105.726 26.964 105.586 27.02 105.409 27.02C105.315 27.02 105.231 27.0013 105.157 26.964C104.783 26.768 104.401 26.6093 104.009 26.488C103.617 26.3667 103.145 26.306 102.595 26.306C101.773 26.306 101.083 26.474 100.523 26.81C99.9628 27.146 99.5428 27.6033 99.2628 28.182C98.9828 28.7513 98.8428 29.3953 98.8428 30.114C98.8428 30.8327 98.9828 31.4813 99.2628 32.06C99.5428 32.6293 99.9628 33.082 100.523 33.418C101.083 33.754 101.773 33.922 102.595 33.922C103.145 33.922 103.617 33.8613 104.009 33.74C104.401 33.6187 104.783 33.46 105.157 33.264C105.231 33.2267 105.315 33.208 105.409 33.208C105.586 33.208 105.726 33.264 105.829 33.376C105.931 33.488 105.978 33.6187 105.969 33.768C105.959 33.8987 105.927 34.006 105.871 34.09C105.824 34.1647 105.754 34.2253 105.661 34.272C105.231 34.5147 104.765 34.72 104.261 34.888C103.757 35.056 103.159 35.14 102.469 35.14ZM108.521 35.07C108.344 35.07 108.195 35.0093 108.073 34.888C107.952 34.7667 107.891 34.6173 107.891 34.44V25.872C107.891 25.6947 107.952 25.5453 108.073 25.424C108.195 25.2933 108.344 25.228 108.521 25.228H111.783C112.67 25.228 113.393 25.354 113.953 25.606C114.513 25.858 114.924 26.1987 115.185 26.628C115.456 27.048 115.591 27.5287 115.591 28.07C115.591 28.6113 115.437 29.1153 115.129 29.582C114.831 30.0487 114.373 30.3893 113.757 30.604C114.149 30.7067 114.462 30.8933 114.695 31.164C114.929 31.4253 115.101 31.724 115.213 32.06C115.335 32.396 115.414 32.7227 115.451 33.04C115.489 33.348 115.507 33.6 115.507 33.796V34.44C115.507 34.6173 115.447 34.7667 115.325 34.888C115.204 35.0093 115.055 35.07 114.877 35.07C114.681 35.07 114.523 35.014 114.401 34.902C114.289 34.7807 114.233 34.6267 114.233 34.44V34.02C114.233 33.7867 114.215 33.5113 114.177 33.194C114.149 32.8767 114.07 32.564 113.939 32.256C113.809 31.948 113.594 31.696 113.295 31.5C113.006 31.2947 112.595 31.192 112.063 31.192H109.165V34.44C109.165 34.6173 109.1 34.7667 108.969 34.888C108.848 35.0093 108.699 35.07 108.521 35.07ZM109.165 29.988H111.699C112.483 29.988 113.113 29.834 113.589 29.526C114.075 29.218 114.317 28.7653 114.317 28.168C114.317 27.8227 114.238 27.5193 114.079 27.258C113.921 26.9967 113.645 26.796 113.253 26.656C112.861 26.5067 112.32 26.432 111.629 26.432H109.165V29.988ZM121.806 35.14C121.339 35.14 120.868 35.0653 120.392 34.916C119.916 34.7667 119.482 34.538 119.09 34.23C118.698 33.9127 118.381 33.516 118.138 33.04C117.905 32.5547 117.788 31.9853 117.788 31.332V25.802C117.788 25.6247 117.849 25.4753 117.97 25.354C118.091 25.2233 118.241 25.158 118.418 25.158C118.595 25.158 118.745 25.2233 118.866 25.354C118.997 25.4753 119.062 25.6247 119.062 25.802V31.374C119.062 31.9527 119.193 32.438 119.454 32.83C119.725 33.2127 120.07 33.502 120.49 33.698C120.91 33.8847 121.349 33.978 121.806 33.978C122.263 33.978 122.702 33.8847 123.122 33.698C123.542 33.502 123.883 33.2127 124.144 32.83C124.415 32.438 124.55 31.9527 124.55 31.374V25.802C124.55 25.6247 124.611 25.4753 124.732 25.354C124.853 25.2233 125.003 25.158 125.18 25.158C125.357 25.158 125.507 25.2233 125.628 25.354C125.759 25.4753 125.824 25.6247 125.824 25.802V31.332C125.824 31.9853 125.703 32.5547 125.46 33.04C125.227 33.516 124.914 33.9127 124.522 34.23C124.13 34.538 123.696 34.7667 123.22 34.916C122.744 35.0653 122.273 35.14 121.806 35.14ZM129.097 35.07C128.92 35.07 128.771 35.0093 128.649 34.888C128.528 34.7667 128.467 34.6173 128.467 34.44V25.802C128.467 25.6247 128.528 25.4753 128.649 25.354C128.771 25.2233 128.92 25.158 129.097 25.158C129.275 25.158 129.424 25.2233 129.545 25.354C129.676 25.4753 129.741 25.6247 129.741 25.802V34.44C129.741 34.6173 129.676 34.7667 129.545 34.888C129.424 35.0093 129.275 35.07 129.097 35.07ZM135.358 35.07C135.18 35.07 135.031 35.0093 134.91 34.888C134.788 34.7667 134.728 34.6173 134.728 34.44V26.418H131.872C131.704 26.418 131.564 26.362 131.452 26.25C131.34 26.138 131.284 25.998 131.284 25.83C131.284 25.662 131.34 25.522 131.452 25.41C131.564 25.2887 131.704 25.228 131.872 25.228H138.844C139.012 25.228 139.152 25.2887 139.264 25.41C139.385 25.522 139.446 25.662 139.446 25.83C139.446 25.998 139.385 26.138 139.264 26.25C139.152 26.362 139.012 26.418 138.844 26.418H136.002V34.44C136.002 34.6173 135.936 34.7667 135.806 34.888C135.684 35.0093 135.535 35.07 135.358 35.07Z" fill="white"/>
<path d="M64.8063 9.62599C66.3684 8.0639 66.3684 5.53124 64.8063 3.96914L63.6656 2.82843C62.1035 1.26633 59.5709 1.26633 58.0088 2.82843L54.0003 6.83689L60.7979 13.6344L64.8063 9.62599Z" fill="#D68CCB"/>
<path d="M36.9205 9.77986C35.3711 8.21563 35.377 5.6933 36.9339 4.13644L38.0745 2.99579C39.6419 1.42845 42.1849 1.43448 43.7448 3.00922L51.1093 10.4439L44.3117 17.2414L36.9205 9.77986Z" fill="#D68CCB"/>
<path fill-rule="evenodd" clip-rule="evenodd" d="M71.0238 38.2795C69.4626 39.8407 66.9318 39.8417 65.3693 38.2819L50.6521 23.5894L42.7361 31.5055C41.4847 32.7569 39.4558 32.7569 38.2044 31.5055L35.9385 29.2397C34.6872 27.9882 34.6872 25.9594 35.9385 24.7079L50.6464 10L53.3783 12.7318C53.4177 12.7682 53.4566 12.8055 53.4949 12.8437L72.1621 31.4795C73.7265 33.0413 73.7275 35.5758 72.1645 37.1388L71.0238 38.2795Z" fill="#D68CCB"/>
<path d="M15.5 39C11.3891 39 7.44666 37.3294 4.53984 34.3556C1.63303 31.3818 0 27.3485 0 23.1429V7.28573C0 5.88387 0.544345 4.53943 1.51328 3.54816C2.48222 2.5569 3.79638 2.00002 5.16667 2.00002C6.53695 2.00002 7.85111 2.5569 8.82005 3.54816C9.78899 4.53943 10.3333 5.88387 10.3333 7.28573V23.1429C10.3333 24.5447 10.8777 25.8892 11.8466 26.8804C12.8156 27.8717 14.1297 28.4286 15.5 28.4286C16.8703 28.4286 18.1844 27.8717 19.1534 26.8804C20.1223 25.8892 20.6667 24.5447 20.6667 23.1429V7.28573C20.6667 5.88387 21.211 4.53943 22.1799 3.54816C23.1489 2.5569 24.463 2.00002 25.8333 2.00002C27.2036 2.00002 28.5178 2.5569 29.4867 3.54816C30.4557 4.53943 31 5.88387 31 7.28573V23.1429C31 27.3485 29.367 31.3818 26.4602 34.3556C23.5533 37.3294 19.6109 39 15.5 39Z" fill="#9F85EC"/>
</svg>
