<svg width="560" height="55" viewBox="0 0 560 55" fill="none" xmlns="http://www.w3.org/2000/svg">
<path d="M259.138 33.5682C323.188 37.4208 387.712 35.4252 451.848 35.4252C522.289 35.4252 592.052 38.0009 662.097 46.1542C667.054 46.7312 672.011 47.3119 676.952 48.0112C680.173 48.4669 687.764 47.3082 686.443 50.2808C684.342 55.0082 642.581 52.1346 641.051 52.1377C513.645 52.3946 386.235 52.1377 258.828 52.1377C173.57 52.1377 88.126 53.7771 2.87836 52.1377C-2.15828 52.0409 12.9269 51.3922 17.9403 50.8998C50.0732 47.7439 81.9861 42.9046 114.192 40.377C261.836 28.7898 411.579 35.4252 559.552 35.4252C605.46 35.4252 743.184 35.4252 697.276 35.4252C568.217 35.4252 439.159 35.4252 310.101 35.4252C265.912 35.4252 221.724 35.4252 177.535 35.4252C152.948 35.4252 226.71 35.4252 251.297 35.4252C392.288 35.4252 815.261 35.4252 674.27 35.4252C603.296 35.4252 532.898 24.1066 462.268 18.2999C404.2 13.526 346.21 10.9974 288.024 8.6025C268.769 7.81001 251.699 6.12403 233.141 2" stroke="white" stroke-width="3" stroke-linecap="round"/>
</svg>
