<svg width="493" height="179" viewBox="0 0 493 179" fill="none" xmlns="http://www.w3.org/2000/svg">
<path d="M-1041.62 110.287C-821.913 123.503 -600.579 116.657 -380.573 116.657C-138.943 116.657 100.361 125.492 340.633 153.46C357.636 155.44 374.642 157.432 391.591 159.83C402.639 161.394 428.68 157.419 424.148 167.615C416.941 183.832 273.689 173.975 268.441 173.985C-168.596 174.866 -605.644 173.985 -1042.68 173.985C-1335.14 173.985 -1628.23 179.609 -1920.66 173.985C-1937.93 173.653 -1886.19 171.428 -1868.99 169.739C-1758.77 158.913 -1649.3 142.313 -1538.82 133.643C-1032.36 93.8959 -518.708 116.657 -11.1233 116.657C146.353 116.657 618.782 116.657 461.305 116.657C18.6025 116.657 -424.1 116.657 -866.803 116.657C-1018.38 116.657 -1169.96 116.657 -1321.54 116.657C-1405.88 116.657 -1152.86 116.657 -1068.51 116.657C-584.88 116.657 866.025 116.657 382.39 116.657C138.931 116.657 -102.551 77.8313 -344.831 57.9129C-544.019 41.5373 -742.939 32.8633 -942.534 24.6483C-1008.58 21.9298 -1067.14 16.1465 -1130.8 2" stroke="white" stroke-width="3" stroke-linecap="round"/>
</svg>
